<svg width="40" height="38" viewBox="0 0 40 38" fill="none" xmlns="http://www.w3.org/2000/svg">
<g id="metamask">
<path id="Vector" d="M38.0082 0.5625L22.4004 12.1547L25.2867 5.31544L38.0082 0.5625Z" fill="#E2761B" stroke="#E2761B" stroke-width="0.3125" stroke-linecap="round" stroke-linejoin="round"/>
<g id="Group">
<path id="Vector_2" d="M1.97559 0.5625L17.4579 12.2645L14.7128 5.31544L1.97559 0.5625Z" fill="#E4761B" stroke="#E4761B" stroke-width="0.3125" stroke-linecap="round" stroke-linejoin="round"/>
<path id="Vector_3" d="M32.3912 27.4326L28.2344 33.8012L37.1285 36.2483L39.6854 27.5738L32.3912 27.4326Z" fill="#E4761B" stroke="#E4761B" stroke-width="0.3125" stroke-linecap="round" stroke-linejoin="round"/>
<path id="Vector_4" d="M0.329102 27.5738L2.87028 36.2483L11.7644 33.8012L7.60753 27.4326L0.329102 27.5738Z" fill="#E4761B" stroke="#E4761B" stroke-width="0.3125" stroke-linecap="round" stroke-linejoin="round"/>
<path id="Vector_5" d="M11.2626 16.6723L8.78418 20.4213L17.6156 20.8134L17.3018 11.3232L11.2626 16.6723Z" fill="#E4761B" stroke="#E4761B" stroke-width="0.3125" stroke-linecap="round" stroke-linejoin="round"/>
<path id="Vector_6" d="M28.721 16.6727L22.6033 11.2139L22.3994 20.8139L31.2151 20.4217L28.721 16.6727Z" fill="#E4761B" stroke="#E4761B" stroke-width="0.3125" stroke-linecap="round" stroke-linejoin="round"/>
<path id="Vector_7" d="M11.7646 33.8014L17.0666 31.2132L12.4862 27.6367L11.7646 33.8014Z" fill="#E4761B" stroke="#E4761B" stroke-width="0.3125" stroke-linecap="round" stroke-linejoin="round"/>
<path id="Vector_8" d="M22.917 31.2132L28.2346 33.8014L27.4974 27.6367L22.917 31.2132Z" fill="#E4761B" stroke="#E4761B" stroke-width="0.3125" stroke-linecap="round" stroke-linejoin="round"/>
</g>
<g id="Group_2">
<path id="Vector_9" d="M28.2356 33.8021L22.918 31.2139L23.3415 34.6805L23.2944 36.1394L28.2356 33.8021Z" fill="#D7C1B3" stroke="#D7C1B3" stroke-width="0.3125" stroke-linecap="round" stroke-linejoin="round"/>
<path id="Vector_10" d="M11.7646 33.8021L16.7058 36.1394L16.6745 34.6805L17.0666 31.2139L11.7646 33.8021Z" fill="#D7C1B3" stroke="#D7C1B3" stroke-width="0.3125" stroke-linecap="round" stroke-linejoin="round"/>
</g>
<path id="Vector_11" d="M16.7849 25.3466L12.3613 24.0446L15.4829 22.6172L16.7849 25.3466Z" fill="#233447" stroke="#233447" stroke-width="0.3125" stroke-linecap="round" stroke-linejoin="round"/>
<path id="Vector_12" d="M23.2002 25.3466L24.5022 22.6172L27.6394 24.0446L23.2002 25.3466Z" fill="#233447" stroke="#233447" stroke-width="0.3125" stroke-linecap="round" stroke-linejoin="round"/>
<g id="Group_3">
<path id="Vector_13" d="M11.7643 33.8012L12.5172 27.4326L7.60742 27.5738L11.7643 33.8012Z" fill="#CD6116" stroke="#CD6116" stroke-width="0.3125" stroke-linecap="round" stroke-linejoin="round"/>
<path id="Vector_14" d="M27.4824 27.4326L28.2354 33.8012L32.3922 27.5738L27.4824 27.4326Z" fill="#CD6116" stroke="#CD6116" stroke-width="0.3125" stroke-linecap="round" stroke-linejoin="round"/>
<path id="Vector_15" d="M31.2151 20.4209L22.3994 20.8131L23.2151 25.3464L24.5171 22.617L27.6543 24.0444L31.2151 20.4209Z" fill="#CD6116" stroke="#CD6116" stroke-width="0.3125" stroke-linecap="round" stroke-linejoin="round"/>
<path id="Vector_16" d="M12.3606 24.0444L15.4979 22.617L16.7842 25.3464L17.6156 20.8131L8.78418 20.4209L12.3606 24.0444Z" fill="#CD6116" stroke="#CD6116" stroke-width="0.3125" stroke-linecap="round" stroke-linejoin="round"/>
</g>
<g id="Group_4">
<path id="Vector_17" d="M8.78418 20.4209L12.4861 27.6366L12.3606 24.0444L8.78418 20.4209Z" fill="#E4751F" stroke="#E4751F" stroke-width="0.3125" stroke-linecap="round" stroke-linejoin="round"/>
<path id="Vector_18" d="M27.6549 24.0444L27.498 27.6366L31.2157 20.4209L27.6549 24.0444Z" fill="#E4751F" stroke="#E4751F" stroke-width="0.3125" stroke-linecap="round" stroke-linejoin="round"/>
<path id="Vector_19" d="M17.6156 20.8135L16.7842 25.3468L17.8195 30.6958L18.0548 23.6527L17.6156 20.8135Z" fill="#E4751F" stroke="#E4751F" stroke-width="0.3125" stroke-linecap="round" stroke-linejoin="round"/>
<path id="Vector_20" d="M22.4001 20.8135L21.9766 23.637L22.1648 30.6958L23.2158 25.3468L22.4001 20.8135Z" fill="#E4751F" stroke="#E4751F" stroke-width="0.3125" stroke-linecap="round" stroke-linejoin="round"/>
</g>
<path id="Vector_21" d="M23.216 25.3469L22.165 30.6959L22.918 31.2135L27.4984 27.6371L27.6552 24.0449L23.216 25.3469Z" fill="#F6851B" stroke="#F6851B" stroke-width="0.3125" stroke-linecap="round" stroke-linejoin="round"/>
<path id="Vector_22" d="M12.3613 24.0449L12.4868 27.6371L17.0672 31.2135L17.8202 30.6959L16.7849 25.3469L12.3613 24.0449Z" fill="#F6851B" stroke="#F6851B" stroke-width="0.3125" stroke-linecap="round" stroke-linejoin="round"/>
<path id="Vector_23" d="M23.2941 36.139L23.3411 34.6802L22.949 34.3351H17.0352L16.6745 34.6802L16.7058 36.139L11.7646 33.8018L13.4901 35.2135L16.9882 37.6449H22.996L26.5097 35.2135L28.2352 33.8018L23.2941 36.139Z" fill="#C0AD9E" stroke="#C0AD9E" stroke-width="0.3125" stroke-linecap="round" stroke-linejoin="round"/>
<path id="Vector_24" d="M22.9179 31.2139L22.165 30.6963H17.8199L17.067 31.2139L16.6748 34.6806L17.0356 34.3355H22.9493L23.3415 34.6806L22.9179 31.2139Z" fill="#161616" stroke="#161616" stroke-width="0.3125" stroke-linecap="round" stroke-linejoin="round"/>
<g id="Group_5">
<path id="Vector_25" d="M38.667 12.9076L40.0003 6.5076L38.0082 0.5625L22.918 11.7625L28.7219 16.6723L36.9258 19.0723L38.7454 16.9547L37.9611 16.39L39.216 15.2449L38.2435 14.4919L39.4984 13.5351L38.667 12.9076Z" fill="#763D16" stroke="#763D16" stroke-width="0.3125" stroke-linecap="round" stroke-linejoin="round"/>
<path id="Vector_26" d="M0 6.5076L1.33333 12.9076L0.486275 13.5351L1.74118 14.4919L0.784314 15.2449L2.03922 16.39L1.2549 16.9547L3.05882 19.0723L11.2627 16.6723L17.0667 11.7625L1.97647 0.5625L0 6.5076Z" fill="#763D16" stroke="#763D16" stroke-width="0.3125" stroke-linecap="round" stroke-linejoin="round"/>
</g>
<path id="Vector_27" d="M36.9255 19.0719L28.7216 16.6719L31.2157 20.4209L27.498 27.6366L32.3922 27.5738H39.6863L36.9255 19.0719Z" fill="#F6851B" stroke="#F6851B" stroke-width="0.3125" stroke-linecap="round" stroke-linejoin="round"/>
<path id="Vector_28" d="M11.2624 16.6719L3.05851 19.0719L0.329102 27.5738H7.60753L12.486 27.6366L8.784 20.4209L11.2624 16.6719Z" fill="#F6851B" stroke="#F6851B" stroke-width="0.3125" stroke-linecap="round" stroke-linejoin="round"/>
<path id="Vector_29" d="M22.4001 20.8135L22.9178 11.7625L25.3021 5.31543H14.7139L17.0668 11.7625L17.6158 20.8135L17.8041 23.6684L17.8197 30.6958H22.1648L22.1962 23.6684L22.4001 20.8135Z" fill="#F6851B" stroke="#F6851B" stroke-width="0.3125" stroke-linecap="round" stroke-linejoin="round"/>
</g>
</svg>
